<svg width="92" height="118" viewBox="0 0 92 118" fill="none" xmlns="http://www.w3.org/2000/svg">
<path d="M0 0H92V111C92 114.866 88.866 118 85 118H7C3.13401 118 0 114.866 0 111V0Z" fill="#411DF2"/>
<path d="M20.3252 94.6992H18.8643C18.8226 94.4596 18.7458 94.2474 18.6338 94.0625C18.5218 93.875 18.3825 93.7161 18.2158 93.5859C18.0492 93.4557 17.859 93.3581 17.6455 93.293C17.4346 93.2253 17.2067 93.1914 16.9619 93.1914C16.527 93.1914 16.1416 93.3008 15.8057 93.5195C15.4697 93.7357 15.2067 94.0534 15.0166 94.4727C14.8265 94.8893 14.7314 95.3984 14.7314 96C14.7314 96.612 14.8265 97.1276 15.0166 97.5469C15.2093 97.9635 15.4723 98.2786 15.8057 98.4922C16.1416 98.7031 16.5257 98.8086 16.958 98.8086C17.1976 98.8086 17.4215 98.7773 17.6299 98.7148C17.8408 98.6497 18.0296 98.5547 18.1963 98.4297C18.3656 98.3047 18.5075 98.151 18.6221 97.9687C18.7393 97.7865 18.82 97.5781 18.8643 97.3437L20.3252 97.3516C20.2705 97.7318 20.152 98.0885 19.9697 98.4219C19.79 98.7552 19.5544 99.0495 19.2627 99.3047C18.971 99.5573 18.6299 99.7552 18.2393 99.8984C17.8486 100.039 17.415 100.109 16.9385 100.109C16.2354 100.109 15.6077 99.9466 15.0557 99.6211C14.5036 99.2956 14.0687 98.8255 13.751 98.2109C13.4333 97.5964 13.2744 96.8594 13.2744 96C13.2744 95.138 13.4346 94.401 13.7549 93.7891C14.0752 93.1745 14.5114 92.7044 15.0635 92.3789C15.6156 92.0534 16.2406 91.8906 16.9385 91.8906C17.3838 91.8906 17.7979 91.9531 18.1807 92.0781C18.5635 92.2031 18.9046 92.3867 19.2041 92.6289C19.5036 92.8685 19.7497 93.1628 19.9424 93.5117C20.1377 93.8581 20.2653 94.2539 20.3252 94.6992ZM21.5898 100V94H22.9609V95H23.0234C23.1328 94.6536 23.3203 94.3867 23.5859 94.1992C23.8542 94.0091 24.1602 93.9141 24.5039 93.9141C24.582 93.9141 24.6693 93.918 24.7656 93.9258C24.8646 93.931 24.9466 93.9401 25.0117 93.9531V95.2539C24.9518 95.2331 24.8568 95.2148 24.7266 95.1992C24.599 95.181 24.4753 95.1719 24.3555 95.1719C24.0977 95.1719 23.8659 95.2279 23.6602 95.3398C23.457 95.4492 23.2969 95.6016 23.1797 95.7969C23.0625 95.9922 23.0039 96.2174 23.0039 96.4727V100H21.5898ZM27.0127 102.25C26.82 102.25 26.6416 102.234 26.4775 102.203C26.3161 102.174 26.1872 102.141 26.0908 102.102L26.4189 101C26.6247 101.06 26.8083 101.089 26.9697 101.086C27.1312 101.083 27.2731 101.033 27.3955 100.934C27.5205 100.837 27.626 100.676 27.7119 100.449L27.833 100.125L25.6572 94H27.1572L28.54 98.5312H28.6025L29.9893 94H31.4932L29.0908 100.727C28.9788 101.044 28.8304 101.316 28.6455 101.543C28.4606 101.772 28.234 101.947 27.9658 102.066C27.7002 102.189 27.3825 102.25 27.0127 102.25ZM32.4717 102.25V94H33.8623V94.9922H33.9443C34.0173 94.8464 34.1201 94.6914 34.2529 94.5273C34.3857 94.3607 34.5654 94.2187 34.792 94.1016C35.0186 93.9818 35.3076 93.9219 35.6592 93.9219C36.1227 93.9219 36.5407 94.0404 36.9131 94.2773C37.2881 94.5117 37.585 94.8594 37.8037 95.3203C38.0251 95.7786 38.1357 96.3411 38.1357 97.0078C38.1357 97.6667 38.0277 98.2266 37.8115 98.6875C37.5954 99.1484 37.3011 99.5 36.9287 99.7422C36.5563 99.9844 36.1344 100.105 35.6631 100.105C35.3193 100.105 35.0342 100.048 34.8076 99.9336C34.5811 99.819 34.3988 99.681 34.2607 99.5195C34.1253 99.3555 34.0199 99.2005 33.9443 99.0547H33.8857V102.25H32.4717ZM33.8584 97C33.8584 97.388 33.9131 97.7279 34.0225 98.0195C34.1344 98.3112 34.2946 98.5391 34.5029 98.7031C34.7139 98.8646 34.9691 98.9453 35.2686 98.9453C35.5811 98.9453 35.8428 98.862 36.0537 98.6953C36.2646 98.526 36.4235 98.2956 36.5303 98.0039C36.6396 97.7096 36.6943 97.375 36.6943 97C36.6943 96.6276 36.641 96.2969 36.5342 96.0078C36.4274 95.7187 36.2686 95.4922 36.0576 95.3281C35.8467 95.1641 35.5837 95.082 35.2686 95.082C34.9665 95.082 34.71 95.1615 34.499 95.3203C34.2881 95.4792 34.1279 95.7018 34.0186 95.9883C33.9118 96.2747 33.8584 96.612 33.8584 97ZM42.3428 94V95.0937H38.8936V94H42.3428ZM39.7451 92.5625H41.1592V98.1953C41.1592 98.3854 41.1878 98.5313 41.2451 98.6328C41.305 98.7318 41.3831 98.7995 41.4795 98.8359C41.5758 98.8724 41.6826 98.8906 41.7998 98.8906C41.8883 98.8906 41.9691 98.8841 42.042 98.8711C42.1175 98.8581 42.1748 98.8464 42.2139 98.8359L42.4521 99.9414C42.3766 99.9674 42.2686 99.9961 42.1279 100.027C41.9899 100.059 41.8206 100.077 41.6201 100.082C41.266 100.092 40.9469 100.039 40.6631 99.9219C40.3792 99.8021 40.154 99.6172 39.9873 99.3672C39.8232 99.1172 39.7425 98.8047 39.7451 98.4297V92.5625ZM46.0781 100.117C45.4922 100.117 44.9844 99.9883 44.5547 99.7305C44.125 99.4727 43.7917 99.112 43.5547 98.6484C43.3203 98.1849 43.2031 97.6432 43.2031 97.0234C43.2031 96.4036 43.3203 95.8607 43.5547 95.3945C43.7917 94.9284 44.125 94.5664 44.5547 94.3086C44.9844 94.0508 45.4922 93.9219 46.0781 93.9219C46.6641 93.9219 47.1719 94.0508 47.6016 94.3086C48.0313 94.5664 48.3633 94.9284 48.5977 95.3945C48.8346 95.8607 48.9531 96.4036 48.9531 97.0234C48.9531 97.6432 48.8346 98.1849 48.5977 98.6484C48.3633 99.112 48.0313 99.4727 47.6016 99.7305C47.1719 99.9883 46.6641 100.117 46.0781 100.117ZM46.0859 98.9844C46.4036 98.9844 46.6693 98.8971 46.8828 98.7227C47.0964 98.5456 47.2552 98.3086 47.3594 98.0117C47.4661 97.7148 47.5195 97.3841 47.5195 97.0195C47.5195 96.6523 47.4661 96.3203 47.3594 96.0234C47.2552 95.724 47.0964 95.4857 46.8828 95.3086C46.6693 95.1315 46.4036 95.043 46.0859 95.043C45.7604 95.043 45.4896 95.1315 45.2734 95.3086C45.0599 95.4857 44.8997 95.724 44.793 96.0234C44.6888 96.3203 44.6367 96.6523 44.6367 97.0195C44.6367 97.3841 44.6888 97.7148 44.793 98.0117C44.8997 98.3086 45.0599 98.5456 45.2734 98.7227C45.4896 98.8971 45.7604 98.9844 46.0859 98.9844ZM56.79 92V100H55.501L51.7314 94.5508H51.665V100H50.2158V92H51.5127L55.2783 97.4531H55.3486V92H56.79ZM60.9629 100.117C60.3613 100.117 59.8418 99.9922 59.4043 99.7422C58.9694 99.4896 58.6348 99.1328 58.4004 98.6719C58.166 98.2083 58.0488 97.6628 58.0488 97.0352C58.0488 96.418 58.166 95.8763 58.4004 95.4102C58.6374 94.9414 58.9681 94.5768 59.3926 94.3164C59.8171 94.0534 60.3158 93.9219 60.8887 93.9219C61.2585 93.9219 61.6074 93.9818 61.9355 94.1016C62.2663 94.2187 62.5579 94.401 62.8105 94.6484C63.0658 94.8958 63.2663 95.2109 63.4121 95.5937C63.5579 95.974 63.6309 96.4271 63.6309 96.9531V97.3867H58.7129V96.4336H62.2754C62.2728 96.1628 62.2142 95.9219 62.0996 95.7109C61.985 95.4974 61.8249 95.3294 61.6191 95.207C61.416 95.0846 61.179 95.0234 60.9082 95.0234C60.6191 95.0234 60.3652 95.0937 60.1465 95.2344C59.9277 95.3724 59.7572 95.5547 59.6348 95.7812C59.515 96.0052 59.4538 96.2513 59.4512 96.5195V97.3516C59.4512 97.7005 59.515 98 59.6426 98.25C59.7702 98.4974 59.9486 98.6875 60.1777 98.8203C60.4069 98.9505 60.6751 99.0156 60.9824 99.0156C61.1882 99.0156 61.3743 98.987 61.541 98.9297C61.7077 98.8698 61.8522 98.7826 61.9746 98.668C62.097 98.5534 62.1895 98.4115 62.252 98.2422L63.5723 98.3906C63.4889 98.7396 63.3301 99.0443 63.0957 99.3047C62.8639 99.5625 62.5671 99.763 62.2051 99.9062C61.8431 100.047 61.429 100.117 60.9629 100.117ZM66.0332 100L64.3379 94H65.7793L66.834 98.2187H66.8887L67.9668 94H69.3926L70.4707 98.1953H70.5293L71.5684 94H73.0137L71.3145 100H69.8418L68.7168 95.9453H68.6348L67.5098 100H66.0332ZM78.7432 95.5859L77.4541 95.7266C77.4176 95.5964 77.3538 95.474 77.2627 95.3594C77.1742 95.2448 77.0544 95.1523 76.9033 95.082C76.7523 95.0117 76.5674 94.9766 76.3486 94.9766C76.0544 94.9766 75.807 95.0404 75.6064 95.168C75.4085 95.2956 75.3109 95.4609 75.3135 95.6641C75.3109 95.8385 75.3747 95.9805 75.5049 96.0898C75.6377 96.1992 75.8564 96.2891 76.1611 96.3594L77.1846 96.5781C77.7523 96.7005 78.1742 96.8945 78.4502 97.1602C78.7288 97.4258 78.8695 97.7734 78.8721 98.2031C78.8695 98.5807 78.7588 98.9141 78.54 99.2031C78.3239 99.4896 78.0231 99.7135 77.6377 99.875C77.2523 100.036 76.8096 100.117 76.3096 100.117C75.5752 100.117 74.984 99.9635 74.5361 99.6562C74.0882 99.3464 73.8213 98.9154 73.7354 98.3633L75.1143 98.2305C75.1768 98.5013 75.3096 98.7057 75.5127 98.8437C75.7158 98.9818 75.9801 99.0508 76.3057 99.0508C76.6416 99.0508 76.9111 98.9818 77.1143 98.8437C77.32 98.7057 77.4229 98.5352 77.4229 98.332C77.4229 98.1602 77.3564 98.0182 77.2236 97.9062C77.0934 97.7943 76.8903 97.7083 76.6143 97.6484L75.5908 97.4336C75.0153 97.3138 74.5895 97.112 74.3135 96.8281C74.0374 96.5417 73.9007 96.1797 73.9033 95.7422C73.9007 95.3724 74.001 95.0521 74.2041 94.7812C74.4098 94.5078 74.695 94.2969 75.0596 94.1484C75.4268 93.9974 75.8499 93.9219 76.3291 93.9219C77.0322 93.9219 77.5856 94.0716 77.9893 94.3711C78.3955 94.6706 78.6468 95.0755 78.7432 95.5859Z" fill="white"/>
</svg>
