<svg width="12" height="8" viewBox="0 0 12 8" fill="none" xmlns="http://www.w3.org/2000/svg">
<path d="M10.8588 1.17155L11.0115 1.04248C10.9488 0.968223 10.8717 0.907645 10.7846 0.865516C10.6973 0.823355 10.6022 0.800838 10.5054 0.800023C10.4086 0.799208 10.3131 0.820121 10.2252 0.860848C10.1376 0.901432 10.0598 0.960557 9.99603 1.03355C9.99586 1.03375 9.99568 1.03395 9.99551 1.03416L6.18817 5.33879L6.18817 5.33879L6.18713 5.33998C6.15925 5.37201 6.12668 5.39638 6.092 5.41263C6.05738 5.42885 6.02087 5.43689 5.9845 5.43689C5.94813 5.43689 5.91161 5.42885 5.877 5.41263C5.84231 5.39638 5.80975 5.37201 5.78187 5.33998L5.78187 5.33998L5.78082 5.33878L2.0036 1.06865C2.0034 1.06842 2.00319 1.06818 2.00299 1.06795C1.93995 0.995665 1.86312 0.936965 1.77658 0.896404C1.68969 0.85568 1.59535 0.834359 1.49947 0.834359C1.4036 0.834359 1.30926 0.85568 1.22237 0.896404C1.13577 0.936995 1.05889 0.99575 0.99582 1.06811C0.734654 1.36456 0.73459 1.83502 0.996444 2.13096C0.996449 2.13097 0.996456 2.13098 0.996462 2.13098L5.12723 6.80046C5.12741 6.80067 5.12759 6.80087 5.12776 6.80107C5.2364 6.92562 5.36808 7.02592 5.51541 7.09491C5.66304 7.16403 5.82279 7.2 5.98475 7.2C6.14671 7.2 6.30645 7.16403 6.45409 7.09491C6.60142 7.02592 6.7331 6.92561 6.84175 6.80106C6.84192 6.80086 6.84209 6.80066 6.84227 6.80046L11.0035 2.09716L11.0035 2.09716L11.0045 2.09601C11.1304 1.9516 11.1988 1.76349 11.2 1.57043C11.2012 1.37737 11.1352 1.18838 11.0113 1.04224L10.8588 1.17155ZM10.8588 1.17155C10.8135 1.11797 10.7586 1.07511 10.6975 1.0456C10.6365 1.01609 10.5705 1.00058 10.5037 1.00002C10.4369 0.999453 10.3707 1.01386 10.3093 1.04233C10.2478 1.0708 10.1923 1.11274 10.1463 1.16555L10.8538 1.96463C10.9468 1.85786 10.9991 1.71647 11 1.56917C11.0009 1.42187 10.9504 1.27971 10.8588 1.17155Z" fill="#101010" stroke="#101010" stroke-width="0.4"/>
</svg>
