<svg width="24" height="35" viewBox="0 0 24 35" fill="none" xmlns="http://www.w3.org/2000/svg">
<path d="M23.9294 12.6799C23.8715 12.5704 23.7812 12.4781 23.6689 12.4135C23.5565 12.3489 23.4266 12.3147 23.2941 12.3147H15.9388L21.8144 0.925352C21.8654 0.826579 21.8884 0.717555 21.8812 0.608436C21.874 0.499317 21.8368 0.393652 21.7731 0.301284C21.7094 0.208915 21.6213 0.132848 21.517 0.0801686C21.4126 0.0274888 21.2955 -9.03048e-05 21.1764 2.22144e-07H9.8824C9.74624 -1.91909e-05 9.61298 0.03612 9.49868 0.104062C9.38439 0.172003 9.29393 0.268847 9.23821 0.382922L0.061804 19.179C0.0135935 19.2777 -0.00694305 19.386 0.00206759 19.4938C0.0110782 19.6017 0.0493492 19.7058 0.113391 19.7966C0.177433 19.8874 0.265209 19.962 0.368716 20.0137C0.472224 20.0653 0.588171 20.0924 0.705988 20.0924H7.59479L4.25154 34.2135C4.21745 34.3568 4.23728 34.5065 4.30782 34.6381C4.37835 34.7696 4.4954 34.8754 4.63985 34.938C4.7843 35.0006 4.9476 35.0164 5.10307 34.9827C5.25854 34.9491 5.39699 34.868 5.49579 34.7528L23.8486 13.3641C23.9306 13.2685 23.9816 13.1536 23.9959 13.0326C24.0102 12.9117 23.9871 12.7894 23.9294 12.6799Z" fill="white"/>
</svg>
