<svg width="48" height="48" viewBox="0 0 48 48" fill="none" xmlns="http://www.w3.org/2000/svg">
<circle cx="24" cy="24" r="23.5" stroke="#B8B8B8"/>
<path d="M21.1716 19.1412L21.0425 18.9885C20.9682 19.0512 20.9076 19.1283 20.8655 19.2154C20.8234 19.3027 20.8008 19.3978 20.8 19.4946C20.7992 19.5914 20.8201 19.6869 20.8608 19.7748C20.9014 19.8624 20.9606 19.9402 21.0336 20.004C21.0338 20.0041 21.034 20.0043 21.0342 20.0045L25.3388 23.8118L25.3388 23.8118L25.34 23.8129C25.372 23.8408 25.3964 23.8733 25.4126 23.908C25.4288 23.9426 25.4369 23.9791 25.4369 24.0155C25.4369 24.0519 25.4288 24.0884 25.4126 24.123C25.3964 24.1577 25.372 24.1903 25.34 24.2181L25.34 24.2181L25.3388 24.2192L21.0687 27.9964C21.0684 27.9966 21.0682 27.9968 21.0679 27.997C20.9957 28.0601 20.937 28.1369 20.8964 28.2234C20.8557 28.3103 20.8344 28.4047 20.8344 28.5005C20.8344 28.5964 20.8557 28.6907 20.8964 28.7776C20.937 28.8642 20.9958 28.9411 21.0681 29.0042C21.3646 29.2653 21.835 29.2654 22.131 29.0036C22.131 29.0036 22.131 29.0035 22.131 29.0035L26.8005 24.8728C26.8007 24.8726 26.8009 24.8724 26.8011 24.8722C26.9256 24.7636 27.0259 24.6319 27.0949 24.4846C27.164 24.337 27.2 24.1772 27.2 24.0153C27.2 23.8533 27.164 23.6935 27.0949 23.5459C27.0259 23.3986 26.9256 23.2669 26.8011 23.1583C26.8009 23.1581 26.8007 23.1579 26.8005 23.1577L22.0972 18.9965L22.0972 18.9965L22.096 18.9955C21.9516 18.8696 21.7635 18.8012 21.5704 18.8C21.3774 18.7988 21.1884 18.8648 21.0422 18.9887L21.1716 19.1412ZM21.1716 19.1412C21.118 19.1865 21.0751 19.2414 21.0456 19.3025C21.0161 19.3635 21.0006 19.4295 21 19.4963C20.9995 19.5631 21.0139 19.6293 21.0423 19.6907C21.0708 19.7522 21.1127 19.8077 21.1656 19.8537L21.9646 19.1462C21.8579 19.0532 21.7165 19.0009 21.5692 19C21.4219 18.9991 21.2797 19.0496 21.1716 19.1412Z" fill="#101010" stroke="#101010" stroke-width="0.4"/>
</svg>
