<svg width="55" height="55" viewBox="0 0 55 55" fill="none" xmlns="http://www.w3.org/2000/svg">
<circle cx="27.5" cy="27.5" r="27.5" fill="#411DF2"/>
<path d="M35.5658 44.7859C36.7024 44.1396 37.9004 43.6022 38.9909 42.985C36.9097 39.6591 34.89 36.4277 32.8703 33.1962L33.0316 33.0437C36.5027 34.8809 39.9661 36.7181 43.4987 38.5916L45.3571 35.4546C41.8092 33.5593 38.3458 31.7148 34.8823 29.8704L34.9514 29.6307L46.8623 29.4782L46.8086 25.8619L34.913 26.0144L34.8516 25.8329C38.269 23.894 41.6863 21.9551 45.1344 20.0017L43.1685 16.9228C39.6666 18.8907 36.2723 20.8078 32.8703 22.7176L32.709 22.5724C34.6443 19.2828 36.5795 16.0005 38.5608 12.6311L35.2433 10.8738C33.2543 14.2287 31.3344 17.4747 29.4069 20.7206L29.115 20.6553L28.9538 9.42871L25.114 9.47954L25.2753 20.6988L25.0603 20.7569C23.0329 17.54 21.0055 14.3231 18.9628 11.0699L15.7144 12.9288C17.8109 16.2837 19.8306 19.5079 21.8426 22.7394" fill="white"/>
</svg>
