<svg width="37" height="42" viewBox="0 0 37 42" fill="none" xmlns="http://www.w3.org/2000/svg">
<path d="M23.5811 42C24.9312 41.2323 26.3543 40.594 27.6497 39.8607C25.1775 35.91 22.7784 32.0715 20.3792 28.2329L20.5708 28.0518C24.694 30.2341 28.8082 32.4165 33.0044 34.642L35.212 30.9156C30.9975 28.6642 26.8834 26.4732 22.7692 24.2822L22.8513 23.9975L37 23.8164L36.9361 19.5206L22.8057 19.7018L22.7327 19.4861C26.7922 17.183 30.8516 14.8799 34.9475 12.5595L32.6122 8.90203C28.4524 11.2397 24.4204 13.5169 20.3792 15.7856L20.1876 15.6131C22.4864 11.7055 24.7853 7.80653 27.1388 3.80407L23.198 1.71657C20.8353 5.70179 18.5547 9.55761 16.265 13.4134L15.9184 13.3358L15.7268 0L11.1657 0.0603826L11.3572 13.3876L11.1018 13.4566C8.69354 9.63524 6.28526 5.81392 3.85873 1.94948L0 4.15773C2.49038 8.14295 4.88955 11.9729 7.27959 15.8115" fill="white"/>
</svg>
