<svg width="66" height="52" viewBox="0 0 66 52" fill="none" xmlns="http://www.w3.org/2000/svg">
<path d="M0 52V38.3158C0 34.1598 0.712262 29.7505 2.13679 25.0877C3.61043 20.3743 5.72266 15.8382 8.47347 11.4795C11.2734 7.07017 14.6382 3.24366 18.5679 0L27.9993 7.90643C24.9046 12.4678 22.2029 17.232 19.8942 22.1988C17.6346 27.115 16.5048 32.386 16.5048 38.0117V52H0ZM37.7254 52V38.3158C37.7254 34.1598 38.4376 29.7505 39.8621 25.0877C41.3358 20.3743 43.448 15.8382 46.1988 11.4795C48.9987 7.07017 52.3636 3.24366 56.2933 0L65.7246 7.90643C62.63 12.4678 59.9283 17.232 57.6196 22.1988C55.36 27.115 54.2302 32.386 54.2302 38.0117V52H37.7254Z" fill="#D9D9D9"/>
</svg>
