<svg width="25" height="24" viewBox="0 0 25 24" fill="none" xmlns="http://www.w3.org/2000/svg">
<path d="M17.2753 8.40142C17.7159 7.96085 17.7159 7.24364 17.2753 6.80306C16.8333 6.36103 16.1176 6.36103 15.6756 6.80306L13.7714 8.70733C13.161 7.41928 13.4113 5.86776 14.4315 4.84757L16.0312 3.24775C17.35 1.92897 19.5089 1.9275 20.8291 3.24775C22.1493 4.568 22.1493 6.72549 20.8291 8.04574L19.2293 9.64556C18.2106 10.6643 16.6591 10.9175 15.3697 10.3071L17.2753 8.40142ZM10.4416 12.0372C8.21827 10.5691 5.22072 10.8604 3.32529 12.7559L1.72699 14.3543C-0.471415 16.5542 -0.472878 20.152 1.72699 22.3504C3.92539 24.5503 7.5245 24.5489 9.7229 22.3519L11.3212 20.7521C13.2181 18.8551 13.5079 15.8589 12.0399 13.6356L13.7128 11.9626C15.9361 13.4307 18.9336 13.1394 20.8291 11.2439L22.4288 9.64556C24.6272 7.44709 24.6272 3.84787 22.4288 1.6494C20.229 -0.550532 16.6299 -0.549068 14.4315 1.6494L12.8332 3.24775C10.9363 5.1447 10.6465 8.14088 12.1145 10.3642L10.4416 12.0372ZM10.3845 15.2925C10.9948 16.582 10.7431 18.1321 9.7229 19.1522L8.12313 20.7521C6.80438 22.0709 4.64697 22.0723 3.32529 20.7521C2.00508 19.4318 2.00508 17.2743 3.32529 15.9541L4.92506 14.3543C5.94376 13.3355 7.49523 13.0823 8.7847 13.6941L6.88049 15.5984C6.43847 16.0404 6.43847 16.7562 6.88049 17.1982C7.32105 17.6388 8.03824 17.6388 8.4788 17.1982L10.3845 15.2925Z" fill="#101010"/>
</svg>
