<svg width="23" height="24" viewBox="0 0 23 24" fill="none" xmlns="http://www.w3.org/2000/svg">
<path d="M20.9384 0.625H2.32477C1.1821 0.625 0.256592 1.55051 0.256592 2.69318V21.3068C0.256592 22.4495 1.1821 23.375 2.32477 23.375H20.9384C22.0811 23.375 23.0066 22.4495 23.0066 21.3068V2.69318C23.0066 1.55051 22.0811 0.625 20.9384 0.625ZM7.44766 19.2386H4.39709V9.42305H7.44766V19.2386ZM5.89135 8.01978C4.90793 8.01978 4.11272 7.2225 4.11272 6.24115C4.11272 5.2598 4.90897 4.46355 5.89135 4.46355C6.87167 4.46355 7.66896 5.26083 7.66896 6.24115C7.66896 7.2225 6.87167 8.01978 5.89135 8.01978ZM18.8744 19.2386H15.8259V14.4653C15.8259 13.3267 15.8052 11.8625 14.2406 11.8625C12.6533 11.8625 12.4092 13.1023 12.4092 14.3825V19.2386H9.36073V9.42305H12.2872V10.7643H12.3286C12.736 9.99283 13.7308 9.179 15.2147 9.179C18.3035 9.179 18.8744 11.212 18.8744 13.8552V19.2386Z" fill="black"/>
</svg>
