<svg width="25" height="26" viewBox="0 0 25 26" fill="none" xmlns="http://www.w3.org/2000/svg">
<g clip-path="url(#clip0_172_1626)">
<path d="M14.3865 2.4375C12.6826 2.4375 11.411 3.82942 11.411 5.41296V8.15356C9.17641 8.27214 7.13279 8.86792 5.50135 9.80237C4.87266 9.19864 4.03083 8.93055 3.21461 8.93115C2.32964 8.9318 1.42495 9.23846 0.800914 9.94043L0.786632 9.9563L0.772349 9.97217C0.173723 10.7203 -0.0633118 11.7225 0.096324 12.7175C0.242112 13.6262 0.768386 14.5384 1.68324 15.136C1.67725 15.2369 1.66102 15.3356 1.66102 15.4375C1.66102 19.4691 6.39952 22.75 12.2235 22.75C18.0475 22.75 22.786 19.4691 22.786 15.4375C22.786 15.3356 22.7698 15.2369 22.7638 15.136C23.6787 14.5384 24.2049 13.6262 24.3507 12.7175C24.5104 11.7225 24.2733 10.7203 23.6747 9.97217L23.6604 9.9563L23.6461 9.94043C23.022 9.23836 22.1175 8.9318 21.2324 8.93115C20.4161 8.93055 19.5742 9.19842 18.9457 9.80237C17.3142 8.86792 15.2706 8.27214 13.036 8.15356V5.41296C13.036 4.6175 13.4953 4.0625 14.3865 4.0625C14.8095 4.0625 15.3249 4.27448 16.1321 4.55762C16.8144 4.79697 17.7025 5.03888 18.8378 5.11145C19.1094 5.91426 19.8633 6.5 20.7548 6.5C21.872 6.5 22.786 5.58594 22.786 4.46875C22.786 3.35156 21.872 2.4375 20.7548 2.4375C19.992 2.4375 19.3309 2.86847 18.9838 3.49438C18.0133 3.44064 17.3002 3.2457 16.6701 3.02466C15.9357 2.76707 15.261 2.4375 14.3865 2.4375ZM3.21461 10.5562C3.53566 10.5559 3.84069 10.6402 4.09217 10.7767C3.19518 11.5255 2.51461 12.4002 2.10377 13.3555C1.88563 13.0862 1.75417 12.7839 1.70228 12.4605C1.61472 11.9147 1.77804 11.3474 2.03712 11.0116C2.28195 10.7481 2.72902 10.5565 3.21461 10.5562ZM21.2308 10.5562C21.7166 10.5565 22.1652 10.7481 22.4099 11.0116C22.669 11.3474 22.8323 11.9147 22.7448 12.4605C22.6929 12.7839 22.5614 13.0862 22.3433 13.3555C21.9324 12.4002 21.2519 11.5255 20.3549 10.7767C20.6058 10.6403 20.9099 10.5559 21.2308 10.5562ZM8.16102 12.1875C9.05883 12.1875 9.78602 12.9147 9.78602 13.8125C9.78602 14.7103 9.05883 15.4375 8.16102 15.4375C7.26321 15.4375 6.53602 14.7103 6.53602 13.8125C6.53602 12.9147 7.26321 12.1875 8.16102 12.1875ZM16.286 12.1875C17.1838 12.1875 17.911 12.9147 17.911 13.8125C17.911 14.7103 17.1838 15.4375 16.286 15.4375C15.3882 15.4375 14.661 14.7103 14.661 13.8125C14.661 12.9147 15.3882 12.1875 16.286 12.1875ZM16.4796 16.6832C15.9604 18.2002 14.3003 19.5 12.2235 19.5C10.1468 19.5 8.4866 18.2008 7.96742 16.7927C8.90179 17.5508 10.4588 18.0924 12.2235 18.0924C13.9883 18.0924 15.5452 17.5502 16.4796 16.6832Z" fill="black"/>
</g>
<defs>
<clipPath id="clip0_172_1626">
<rect width="24.375" height="24.375" fill="white" transform="translate(0.0361328 0.8125)"/>
</clipPath>
</defs>
</svg>
