<svg width="18" height="19" viewBox="0 0 18 19" fill="none" xmlns="http://www.w3.org/2000/svg">
<path d="M17.7473 17.0372L14.4102 13.7247C15.7056 12.1084 16.3329 10.0568 16.1631 7.9919C15.9934 5.92696 15.0396 4.00557 13.4978 2.62282C11.9559 1.24007 9.94333 0.501048 7.87376 0.557722C5.80419 0.614396 3.83498 1.46245 2.37103 2.92752C0.907077 4.39258 0.0596628 6.36329 0.00303206 8.43443C-0.0535986 10.5056 0.684859 12.5197 2.06656 14.0627C3.44826 15.6057 5.36819 16.5602 7.43156 16.7301C9.49493 16.8999 11.5449 16.2722 13.16 14.9759L16.47 18.2884C16.5536 18.3728 16.6531 18.4398 16.7627 18.4855C16.8723 18.5312 16.9899 18.5547 17.1086 18.5547C17.2274 18.5547 17.3449 18.5312 17.4546 18.4855C17.5642 18.4398 17.6636 18.3728 17.7473 18.2884C17.9094 18.1206 18 17.8963 18 17.6628C18 17.4294 17.9094 17.2051 17.7473 17.0372ZM8.11399 14.9759C6.8687 14.9759 5.65139 14.6063 4.61597 13.914C3.58056 13.2216 2.77355 12.2375 2.297 11.0861C1.82045 9.93478 1.69577 8.66785 1.93871 7.44557C2.18165 6.22328 2.78131 5.10055 3.66186 4.21933C4.54241 3.33811 5.66429 2.738 6.88565 2.49487C8.107 2.25174 9.37297 2.37653 10.5235 2.85344C11.674 3.33035 12.6573 4.13797 13.3491 5.17417C14.041 6.21037 14.4102 7.42861 14.4102 8.67484C14.4102 10.346 13.7469 11.9487 12.5661 13.1303C11.3853 14.312 9.78386 14.9759 8.11399 14.9759Z" fill="#101010"/>
</svg>
