<svg width="24" height="22" viewBox="0 0 24 22" fill="none" xmlns="http://www.w3.org/2000/svg">
<path d="M21.2631 0.439315C20.9512 0.453075 20.6606 0.543918 20.4048 0.647324C20.1652 0.743715 19.2496 1.1364 17.8075 1.75483C16.3641 2.3738 14.453 3.19432 12.4143 4.07103C8.33686 5.82446 3.75278 7.7982 1.4048 8.80838C1.31651 8.84636 1.00844 8.94477 0.681459 9.20004C0.354478 9.45531 0.00683594 9.98426 0.00683594 10.5736C0.00683594 11.0489 0.233334 11.5211 0.518425 11.803C0.803515 12.0849 1.10518 12.2241 1.36358 12.3295C2.30113 12.7121 5.2089 13.902 5.75799 14.1267C5.95124 14.7186 7.00371 17.9382 7.24779 18.7272C7.40868 19.2479 7.56184 19.574 7.76125 19.8328C7.86095 19.9622 7.97685 20.0757 8.1173 20.1645C8.17344 20.2001 8.23499 20.2274 8.2972 20.2526L8.30095 20.2545C8.31528 20.2602 8.32764 20.27 8.34217 20.2751C8.3696 20.2847 8.38794 20.2858 8.42463 20.2938C8.57078 20.341 8.71833 20.3707 8.85001 20.3707C9.41146 20.3707 9.75513 20.0615 9.75513 20.0615L9.77575 20.0465L12.6635 17.5485L16.1659 20.8616C16.2152 20.9314 16.6752 21.5625 17.6894 21.5625C18.2917 21.5625 18.7694 21.2603 19.0762 20.9385C19.3829 20.6167 19.574 20.2786 19.6552 19.8535V19.8516C19.7312 19.4499 22.959 2.8792 22.959 2.8792L22.9534 2.90169C23.0479 2.4704 23.0726 2.06874 22.9684 1.67238C22.8641 1.27601 22.5894 0.896514 22.2488 0.692299C21.9082 0.488128 21.575 0.425555 21.2631 0.439315ZM21.0832 2.44444C21.0786 2.47245 21.0866 2.45836 21.0794 2.49129L21.0776 2.50254L21.0757 2.51378C21.0757 2.51378 17.8879 18.8725 17.77 19.4955C17.7786 19.4485 17.7392 19.542 17.6988 19.5986C17.6417 19.5592 17.5245 19.5086 17.5245 19.5086L17.5058 19.488L12.7216 14.9624L9.33912 17.8858L10.3454 13.8568C10.3454 13.8568 16.6358 7.34528 17.0148 6.96629C17.3199 6.6631 17.384 6.55741 17.384 6.45283C17.384 6.31274 17.311 6.21109 17.1479 6.21109C17.0011 6.21109 16.8037 6.35381 16.6981 6.42097C15.3231 7.29748 9.2866 10.8157 6.58066 12.3895C6.15064 12.2135 3.16315 10.9906 2.15064 10.5774C2.1583 10.574 2.15578 10.5752 2.16375 10.5718C4.51235 9.56133 9.09452 7.5876 13.1713 5.83442C15.2098 4.95783 17.1224 4.13669 18.5646 3.51822C19.9846 2.90927 20.9712 2.49018 21.0832 2.44444Z" fill="black"/>
</svg>
