<svg width="171" height="30" viewBox="0 0 171 30" fill="none" xmlns="http://www.w3.org/2000/svg">
<g clip-path="url(#clip0_172_1797)">
<path d="M31.8484 22.1812C31.2877 22.7295 30.6777 23.1732 30.0246 23.5182C29.3653 23.8632 28.6753 24.1159 27.9482 24.2761C27.2212 24.4363 26.5249 24.5163 25.8533 24.5163C24.5656 24.5163 23.3826 24.2514 22.3105 23.7154C21.2323 23.1855 20.308 22.4769 19.544 21.602C18.7738 20.7209 18.1824 19.7043 17.7634 18.5459C17.3444 17.3876 17.1349 16.1861 17.1349 14.9353C17.1349 13.8201 17.3136 12.6926 17.6771 11.5589C18.0406 10.4252 18.5767 9.41469 19.2914 8.52744C20.0061 7.63403 20.8995 6.91315 21.9778 6.35246C23.056 5.79177 24.3191 5.5145 25.7732 5.5145C26.4448 5.5145 27.1287 5.58844 27.8312 5.73631C28.5274 5.88419 29.199 6.11832 29.8459 6.43255C30.4867 6.75295 31.0905 7.18425 31.6512 7.73262C32.0825 8.15775 32.4707 8.65683 32.8034 9.236C32.9636 9.51327 33.3271 9.58721 33.5921 9.41469L37.0795 7.1288C37.3321 6.96244 37.4183 6.62972 37.2643 6.3771C36.2908 4.75048 34.886 3.41345 33.0622 2.36601C31.0597 1.21999 28.6938 0.646973 25.9519 0.646973C23.6291 0.646973 21.5588 1.05979 19.7474 1.88542C17.9297 2.71105 16.3894 3.7893 15.1324 5.12017C13.8755 6.45104 12.9143 7.96059 12.2612 9.64882C11.6019 11.3371 11.2754 13.0499 11.2754 14.7813C11.2754 16.5127 11.6328 18.3672 12.3475 20.1109C13.0622 21.8546 14.0542 23.4135 15.3235 24.7813C16.5927 26.1553 18.1146 27.2643 19.8767 28.1146C21.6389 28.9649 23.5798 29.39 25.7055 29.39C26.9069 29.39 28.1392 29.2422 29.3962 28.9526C30.6531 28.663 31.8361 28.2317 32.939 27.6772C34.0419 27.1165 35.0339 26.4326 35.9149 25.6192C36.6605 24.9353 37.2581 24.1528 37.7141 23.2902C37.8558 23.0253 37.7387 22.6926 37.48 22.5509L33.7276 20.4991C33.4565 20.3512 33.1115 20.4436 32.9698 20.7147C32.6679 21.2754 32.3043 21.7684 31.8669 22.1935L31.8484 22.1812Z" fill="#101010"/>
<path d="M59.8459 11.1212C58.8539 10.1231 57.6524 9.3344 56.2414 8.7429C54.8305 8.15756 53.2285 7.86182 51.4417 7.86182C49.6549 7.86182 48.0467 8.15756 46.6173 8.7429C45.194 9.32824 43.9802 10.1231 42.9882 11.1212C41.9962 12.1194 41.2322 13.2716 40.7023 14.5778C40.1724 15.884 39.9075 17.2642 39.9075 18.7306C39.9075 20.197 40.1724 21.5402 40.7023 22.8403C41.2322 24.1465 41.9962 25.2925 42.9882 26.2907C43.9802 27.2888 45.1878 28.0836 46.6173 28.669C48.0406 29.2543 49.6487 29.5501 51.4417 29.5501C53.2346 29.5501 54.8366 29.2543 56.2661 28.669C57.6894 28.0836 58.897 27.2888 59.8705 26.2907C60.8502 25.2925 61.6019 24.1403 62.1379 22.8403C62.6678 21.534 62.9327 20.1662 62.9327 18.7306C62.9327 17.295 62.6678 15.884 62.1379 14.5778C61.608 13.2716 60.844 12.1194 59.852 11.1212H59.8459ZM56.7405 21.2383C56.4447 22.0085 56.0381 22.6739 55.5267 23.2346C55.0091 23.7953 54.3992 24.2266 53.7029 24.5346C53.0005 24.8427 52.2488 24.9968 51.4355 24.9968C50.6222 24.9968 49.8705 24.8427 49.1681 24.5346C48.4657 24.2266 47.8619 23.7953 47.3443 23.2346C46.8268 22.6739 46.4201 22.0146 46.1305 21.2568C45.8348 20.4989 45.6931 19.6548 45.6931 18.7244C45.6931 17.794 45.8409 16.9807 46.1305 16.2106C46.4263 15.4404 46.8268 14.7749 47.3443 14.2143C47.8619 13.6536 48.4719 13.2161 49.1681 12.8957C49.8643 12.5753 50.6222 12.4151 51.4355 12.4151C52.2488 12.4151 53.0005 12.5691 53.7029 12.8772C54.3992 13.1853 55.0091 13.6166 55.5267 14.1773C56.0443 14.738 56.4509 15.4034 56.7405 16.1736C57.0362 16.9438 57.178 17.7817 57.178 18.6874C57.178 19.5932 57.0301 20.4681 56.7405 21.2444V21.2383Z" fill="#101010"/>
<path d="M71.9285 8.22559H67.0979C66.8802 8.22559 66.7036 8.40213 66.7036 8.61992V28.7555C66.7036 28.9733 66.8802 29.1498 67.0979 29.1498H71.9285C72.1463 29.1498 72.3228 28.9733 72.3228 28.7555V8.61992C72.3228 8.40213 72.1463 8.22559 71.9285 8.22559Z" fill="#101010"/>
<path d="M69.6673 0H69.3592C67.8926 0 66.7036 1.18894 66.7036 2.65558C66.7036 4.12221 67.8926 5.31115 69.3592 5.31115H69.6673C71.1339 5.31115 72.3228 4.12221 72.3228 2.65558C72.3228 1.18894 71.1339 0 69.6673 0Z" fill="#101010"/>
<path d="M96.5618 10.4619C96.0874 9.69176 95.4158 9.0633 94.547 8.5827C93.6783 8.10211 92.5631 7.86182 91.1891 7.86182C89.2605 7.86182 87.523 8.23766 85.9888 8.97703C84.8921 9.50692 83.9802 10.1908 83.2531 11.0165C82.9759 11.3307 82.4645 11.1335 82.4645 10.7146V8.67512C82.4645 8.42251 82.2611 8.21918 82.0085 8.21918H77.8434C77.5908 8.21918 77.3875 8.42251 77.3875 8.67512V28.6874C77.3875 28.9401 77.5908 29.1434 77.8434 29.1434H82.5507C82.8033 29.1434 83.0067 28.9401 83.0067 28.6874V17.0054C83.0067 16.9561 83.0128 16.9006 83.0313 16.8513C83.2285 16.2414 83.5304 15.6807 83.9309 15.1693C84.3499 14.6394 84.8181 14.1773 85.3357 13.7891C85.8533 13.4009 86.4078 13.1052 86.9931 12.8895C87.5785 12.6739 88.1515 12.5691 88.7122 12.5691C89.8027 12.5691 90.653 12.9573 91.2692 13.7275C91.8853 14.4977 92.1934 15.7238 92.1934 17.3997V28.6813C92.1934 28.9339 92.3967 29.1372 92.6493 29.1372H97.3566C97.6093 29.1372 97.8126 28.9339 97.8126 28.6813V16.0812C97.8126 15.0707 97.7202 14.0725 97.5415 13.0867C97.3566 12.1009 97.0301 11.226 96.5557 10.4496L96.5618 10.4619Z" fill="#101010"/>
<path d="M114.683 7.94824C114.097 7.94824 113.487 8.05915 112.859 8.28712C112.23 8.51509 111.608 8.84165 110.992 9.26679C110.376 9.69193 109.803 10.191 109.273 10.764C109.156 10.8934 109.039 11.0228 108.928 11.1645C108.577 11.5835 107.893 11.3247 107.893 10.7763V8.82317C107.893 8.49661 107.628 8.23167 107.301 8.23167H103.327C103.001 8.23167 102.736 8.49661 102.736 8.82317V28.5644C102.736 28.8909 103.001 29.1559 103.327 29.1559H107.763C108.09 29.1559 108.355 28.8909 108.355 28.5644V16.6482C108.355 16.5496 108.379 16.451 108.423 16.3586C109.014 15.2311 109.957 14.3746 111.251 13.8016C112.44 13.2717 113.777 12.9636 115.256 12.8835C115.57 12.8651 115.822 12.6124 115.822 12.2982V7.99753C115.681 7.97289 115.533 7.96057 115.385 7.96057H114.695L114.683 7.94824Z" fill="#101010"/>
<path d="M121.922 0H121.614C120.148 0 118.959 1.18894 118.959 2.65558C118.959 4.12221 120.148 5.31115 121.614 5.31115H121.922C123.389 5.31115 124.578 4.12221 124.578 2.65558C124.578 1.18894 123.389 0 121.922 0Z" fill="#101010"/>
<path d="M124.159 8.22559H119.378C119.146 8.22559 118.959 8.41317 118.959 8.64456V28.7308C118.959 28.9622 119.146 29.1498 119.378 29.1498H124.159C124.39 29.1498 124.578 28.9622 124.578 28.7308V8.64456C124.578 8.41317 124.39 8.22559 124.159 8.22559Z" fill="#101010"/>
<path d="M144.855 19.0081C144.171 18.5275 143.29 18.1023 142.212 17.7327C141.134 17.363 139.84 16.9871 138.33 16.6174C137.517 16.4326 136.839 16.2539 136.297 16.0752C135.755 15.9027 135.311 15.724 134.978 15.5392C134.646 15.3543 134.399 15.1387 134.245 14.8984C134.091 14.6581 134.017 14.3562 134.017 13.9803C134.017 13.1547 134.338 12.5571 134.985 12.1812C135.625 11.8115 136.426 11.6205 137.375 11.6205C138.41 11.6205 139.452 11.8054 140.499 12.1812C141.392 12.5016 142.31 12.9699 143.253 13.5983C143.53 13.7832 143.9 13.7216 144.091 13.4505L145.687 11.1769C145.872 10.912 145.822 10.5484 145.57 10.3513C144.485 9.52563 143.315 8.90949 142.052 8.51516C140.61 8.06537 139.07 7.8374 137.418 7.8374C136.186 7.8374 135.046 7.9976 133.999 8.31799C132.951 8.63839 132.033 9.09433 131.251 9.69815C130.468 10.2958 129.858 11.0229 129.427 11.8731C128.996 12.7234 128.774 13.6846 128.774 14.7505C128.774 15.5515 128.916 16.2354 129.193 16.8084C129.47 17.3815 129.92 17.8867 130.536 18.3242C131.152 18.7616 131.959 19.1559 132.97 19.501C133.974 19.846 135.194 20.2096 136.617 20.5792C138.324 21.0352 139.556 21.4295 140.308 21.7746C141.066 22.1196 141.442 22.668 141.442 23.4135C141.442 24.159 141.121 24.732 140.474 25.1325C139.834 25.533 138.953 25.7302 137.831 25.7302C136.574 25.7302 135.305 25.4961 134.036 25.034C132.927 24.6273 131.793 24.0543 130.635 23.3149C130.351 23.1301 129.969 23.2102 129.79 23.4998L128.312 25.8657C128.145 26.1307 128.201 26.4819 128.453 26.6667C129.624 27.5417 130.986 28.2256 132.551 28.7246C134.313 29.2853 136.118 29.5626 137.961 29.5626C140.702 29.5626 142.865 28.9711 144.461 27.7881C146.057 26.6051 146.851 24.9847 146.851 22.9391C146.851 22.058 146.691 21.3063 146.371 20.684C146.05 20.0617 145.545 19.5071 144.861 19.0266L144.855 19.0081Z" fill="#101010"/>
<path d="M169.945 14.5348C167.603 7.83735 160.259 6.35245 154.96 9.06964C151.62 10.7825 149.113 14.2884 149.113 18.8109C149.113 30.8503 163.857 33.7277 169.698 24.7566C169.908 24.4301 169.747 23.9926 169.372 23.9002L165.41 22.9082C165.163 22.8466 164.911 22.9698 164.787 23.1916C162.397 27.3444 155.342 25.8102 154.72 21.0475C154.677 20.7147 154.942 20.4128 155.28 20.4128H170.062C170.345 20.4128 170.592 20.2033 170.622 19.9261C170.813 18.1393 170.573 16.2169 169.951 14.5471L169.945 14.5348ZM154.652 16.2908C155.41 10.4128 164.449 10.3451 165.219 16.2908C165.262 16.6297 165.003 16.9316 164.664 16.9316H155.213C154.874 16.9316 154.615 16.6297 154.658 16.2908H154.652Z" fill="#101010"/>
<path d="M22.5139 9.90771H0V19.1992H22.5139V9.90771Z" fill="white"/>
<path d="M3.23486 12.1751V11.3433H7.96068V12.1751H6.13074V16.8085H5.06481V12.1751H3.23486Z" fill="#101010"/>
<path d="M9.87069 14.4055V16.8085H8.82324V11.3433H9.84604V13.4073H9.89533C10.0001 13.1732 10.1603 12.9945 10.3821 12.859C10.5977 12.7234 10.8812 12.6556 11.22 12.6556C11.5281 12.6556 11.7992 12.7173 12.0272 12.8343C12.2552 12.9514 12.4338 13.1301 12.5632 13.358C12.6865 13.586 12.7542 13.8694 12.7542 14.196V16.8085H11.7068V14.35C11.7068 14.0728 11.6329 13.8571 11.4788 13.7031C11.3248 13.5491 11.1091 13.4751 10.838 13.4751C10.6532 13.4751 10.4868 13.5121 10.3451 13.586C10.1972 13.66 10.0863 13.7647 10.0062 13.9064C9.92614 14.0481 9.88301 14.2145 9.88301 14.4117L9.87069 14.4055Z" fill="#101010"/>
<path d="M15.7795 16.8887C15.3359 16.8887 14.9478 16.8024 14.6274 16.6299C14.307 16.4574 14.0543 16.2171 13.8818 15.8967C13.7093 15.5824 13.623 15.2066 13.623 14.7815C13.623 14.3563 13.7093 13.9866 13.8818 13.6724C14.0543 13.352 14.3008 13.1055 14.615 12.9269C14.9293 12.7482 15.299 12.6558 15.7241 12.6558C15.9952 12.6558 16.254 12.6989 16.5004 12.779C16.7469 12.8591 16.9625 12.9823 17.1474 13.1548C17.3384 13.3212 17.4863 13.5368 17.591 13.8018C17.7019 14.0606 17.7512 14.3748 17.7512 14.7322V15.0279H14.1098V14.3748H16.7469C16.7469 14.19 16.7038 14.0236 16.6175 13.8819C16.5312 13.7402 16.4142 13.6231 16.2663 13.5368C16.1184 13.4506 15.9397 13.4136 15.7364 13.4136C15.5208 13.4136 15.3359 13.4629 15.1757 13.5553C15.0155 13.6478 14.8861 13.7771 14.7999 13.9312C14.7075 14.0852 14.6643 14.2516 14.6643 14.4364V15.0033C14.6643 15.2436 14.7136 15.4469 14.806 15.6132C14.8985 15.7858 15.034 15.9152 15.2004 16.0014C15.3729 16.0938 15.5701 16.137 15.798 16.137C15.9521 16.137 16.0876 16.1185 16.2108 16.0754C16.3341 16.0384 16.4388 15.9768 16.5312 15.8967C16.6237 15.8166 16.6914 15.7242 16.7346 15.6071L17.7142 15.7057C17.6526 15.946 17.5356 16.1493 17.363 16.328C17.1905 16.5067 16.9687 16.6422 16.7038 16.7408C16.4388 16.8394 16.1307 16.8887 15.7857 16.8887H15.7795Z" fill="#101010"/>
</g>
<defs>
<clipPath id="clip0_172_1797">
<rect width="170.684" height="30" fill="white"/>
</clipPath>
</defs>
</svg>
