<svg width="48" height="48" viewBox="0 0 48 48" fill="none" xmlns="http://www.w3.org/2000/svg">
<circle cx="24" cy="24" r="23.5" transform="rotate(180 24 24)" stroke="white"/>
<path d="M26.8284 28.8588L26.9575 29.0115C27.0318 28.9488 27.0924 28.8717 27.1345 28.7846C27.1766 28.6973 27.1992 28.6022 27.2 28.5054C27.2008 28.4086 27.1799 28.3131 27.1392 28.2252C27.0986 28.1376 27.0394 28.0598 26.9664 27.996C26.9662 27.9959 26.966 27.9957 26.9658 27.9955L22.6612 24.1882L22.6612 24.1882L22.66 24.1871C22.628 24.1592 22.6036 24.1267 22.5874 24.092C22.5712 24.0574 22.5631 24.0209 22.5631 23.9845C22.5631 23.9481 22.5712 23.9116 22.5874 23.877C22.6036 23.8423 22.628 23.8097 22.66 23.7819L22.66 23.7819L22.6612 23.7808L26.9313 20.0036C26.9316 20.0034 26.9318 20.0032 26.9321 20.003C27.0043 19.9399 27.063 19.8631 27.1036 19.7766C27.1443 19.6897 27.1656 19.5953 27.1656 19.4995C27.1656 19.4036 27.1443 19.3093 27.1036 19.2224C27.063 19.1358 27.0042 19.0589 26.9319 18.9958C26.6354 18.7347 26.165 18.7346 25.869 18.9964C25.869 18.9964 25.869 18.9965 25.869 18.9965L21.1995 23.1272C21.1993 23.1274 21.1991 23.1276 21.1989 23.1278C21.0744 23.2364 20.9741 23.3681 20.9051 23.5154C20.836 23.663 20.8 23.8228 20.8 23.9847C20.8 24.1467 20.836 24.3065 20.9051 24.4541C20.9741 24.6014 21.0744 24.7331 21.1989 24.8417C21.1991 24.8419 21.1993 24.8421 21.1995 24.8423L25.9028 29.0035L25.9028 29.0035L25.904 29.0045C26.0484 29.1304 26.2365 29.1988 26.4296 29.2C26.6226 29.2012 26.8116 29.1352 26.9578 29.0113L26.8284 28.8588ZM26.8284 28.8588C26.882 28.8135 26.9249 28.7586 26.9544 28.6975C26.9839 28.6365 26.9994 28.5705 27 28.5037C27.0005 28.4369 26.9861 28.3707 26.9577 28.3093C26.9292 28.2478 26.8873 28.1923 26.8344 28.1463L26.0354 28.8538C26.1421 28.9468 26.2835 28.9991 26.4308 29C26.5781 29.0009 26.7203 28.9504 26.8284 28.8588Z" fill="white" stroke="white" stroke-width="0.4"/>
</svg>
